<svg width="293" height="311" viewBox="0 0 293 311" fill="none" xmlns="http://www.w3.org/2000/svg">
<g filter="url(#filter0_dddddd_438_42)">
<g clip-path="url(#clip0_438_42)">
<rect x="12.3145" y="11.625" width="156.25" height="156.25" rx="78.125" fill="url(#paint0_linear_438_42)"/>
<mask id="mask0_438_42" style="mask-type:luminance" maskUnits="userSpaceOnUse" x="12" y="23" width="157" height="151">
<path d="M168.563 23.6444H12.3125V173.885H168.563V23.6444Z" fill="white"/>
</mask>
<g mask="url(#mask0_438_42)">
<path d="M102.646 131.817V145.715C102.646 148.828 101.36 151.813 99.0709 154.014C96.7816 156.215 93.6767 157.452 90.4392 157.452C87.2017 157.452 84.0968 156.215 81.8075 154.014C79.5182 151.813 78.2321 148.828 78.2321 145.715V131.817C73.3385 130.013 68.9405 127.153 65.3768 123.457C61.813 119.762 59.1783 115.33 57.6755 110.502H57.4801C54.6689 110.507 51.9627 109.475 49.9186 107.619C47.8745 105.764 46.648 103.225 46.4916 100.526C46.3352 97.827 47.2608 95.1731 49.0778 93.1105C50.8948 91.0479 53.465 89.7335 56.2594 89.4378V87.0269C56.2594 68.876 71.5622 54.1619 90.4392 54.1619C109.316 54.1619 124.619 68.876 124.619 87.0269V89.4378C127.435 89.7298 130.025 91.0562 131.848 93.1401C133.671 95.224 134.587 97.9045 134.404 100.622C134.222 103.34 132.955 105.885 130.867 107.725C128.78 109.566 126.034 110.561 123.203 110.502C121.7 115.33 119.066 119.763 115.502 123.459C111.938 127.155 107.54 130.013 102.646 131.817Z" fill="#92594B"/>
<mask id="mask1_438_42" style="mask-type:alpha" maskUnits="userSpaceOnUse" x="46" y="54" width="89" height="104">
<path d="M102.648 131.817V145.715C102.648 148.828 101.362 151.813 99.0728 154.014C96.7836 156.216 93.6786 157.452 90.4411 157.452C87.2036 157.452 84.0987 156.216 81.8094 154.014C79.5202 151.813 78.2341 148.828 78.2341 145.715V131.817C73.3404 130.013 68.9425 127.153 65.3787 123.458C61.8149 119.762 59.1803 115.33 57.6774 110.502H57.4821C54.6708 110.507 51.9647 109.475 49.9206 107.619C47.8765 105.764 46.65 103.225 46.4936 100.526C46.3372 97.8271 47.2627 95.1732 49.0798 93.1106C50.8968 91.0479 53.467 89.7335 56.2614 89.4379V87.027C56.2614 68.8761 71.5641 54.1619 90.4411 54.1619C109.318 54.1619 124.621 68.8761 124.621 87.027V89.4379C127.437 89.7299 130.027 91.0563 131.85 93.1402C133.673 95.2241 134.589 97.9046 134.406 100.622C134.224 103.34 132.957 105.885 130.869 107.725C128.782 109.566 126.036 110.561 123.205 110.502C121.702 115.33 119.068 119.763 115.504 123.459C111.94 127.155 107.542 130.013 102.648 131.817Z" fill="white"/>
</mask>
<g mask="url(#mask1_438_42)">
<g style="mix-blend-mode:overlay" opacity="0.364">
<path d="M90.4395 54.1619C109.316 54.1619 124.619 68.8761 124.619 87.027V101.112C124.619 119.263 109.316 133.977 90.4395 133.977C71.5625 133.977 56.2598 119.263 56.2598 101.112V87.027C56.2598 68.8761 71.5625 54.1619 90.4395 54.1619Z" fill="white"/>
</g>
</g>
<path d="M70.9062 90.5481C70.9062 91.0105 71.001 91.4684 71.185 91.8956C71.3691 92.3229 71.6388 92.711 71.9789 93.038C72.3189 93.365 72.7226 93.6244 73.1669 93.8013C73.6112 93.9783 74.0874 94.0694 74.5684 94.0694C75.0493 94.0694 75.5255 93.9783 75.9698 93.8013C76.4141 93.6244 76.8178 93.365 77.1579 93.038C77.4979 92.711 77.7677 92.3229 77.9517 91.8956C78.1358 91.4684 78.2305 91.0105 78.2305 90.5481C78.2305 89.6142 77.8447 88.7186 77.1579 88.0582C76.4711 87.3978 75.5396 87.0269 74.5684 87.0269C73.5971 87.0269 72.6656 87.3978 71.9789 88.0582C71.2921 88.7186 70.9063 89.6142 70.9062 90.5481ZM113.006 89.156C112.946 88.6929 112.696 88.2717 112.313 87.9852C111.93 87.6986 111.444 87.5701 110.962 87.6278L101.197 88.8016C100.724 88.8694 100.297 89.1123 100.008 89.4785C99.7193 89.8448 99.5907 90.3051 99.65 90.7613C99.7093 91.2175 99.9518 91.6333 100.326 91.9198C100.7 92.2063 101.175 92.3409 101.651 92.2947L111.417 91.1209C111.898 91.0629 112.336 90.8233 112.634 90.4549C112.932 90.0864 113.066 89.6192 113.006 89.156Z" fill="#1B0640"/>
<path d="M94.8149 44.7719C95.1265 43.8186 95.7463 42.9858 96.584 42.3946C97.4218 41.8033 98.4339 41.4845 99.4732 41.4845C100.512 41.4845 101.524 41.8033 102.362 42.3946C103.2 42.9858 103.82 43.8186 104.131 44.7719H105.494C105.93 43.8061 106.692 43.0094 107.656 42.5101C108.621 42.0107 109.732 41.8376 110.811 42.0185C111.89 42.1995 112.874 42.724 113.606 43.5078C114.337 44.2916 114.773 45.2891 114.844 46.3401C115.027 46.4105 115.21 46.4879 115.391 46.5631C116.229 45.8912 117.277 45.5086 118.367 45.4762C119.458 45.4438 120.528 45.7636 121.408 46.3844C122.287 47.0053 122.925 47.8915 123.22 48.9016C123.514 49.9118 123.448 50.9877 123.033 51.9576L123.404 52.3755C124.442 52.173 125.521 52.301 126.478 52.74C127.434 53.179 128.216 53.9053 128.705 54.8091C129.194 55.713 129.365 56.7454 129.19 57.7504C129.016 58.7555 128.506 59.6786 127.737 60.3805C127.841 60.7489 127.933 61.1199 128.016 61.4932C128.95 61.8233 129.757 62.4201 130.329 63.2038C130.901 63.9875 131.21 64.9205 131.215 65.8778C131.22 66.835 130.92 67.7709 130.356 68.5598C129.792 69.3487 128.991 69.953 128.06 70.2917L127.945 71.0522C128.781 71.4363 129.487 72.0413 129.979 72.7966C130.471 73.552 130.729 74.4264 130.724 75.3176C130.718 76.2089 130.449 77.0802 129.947 77.8297C129.446 78.5793 128.732 79.176 127.891 79.5502C128.172 80.1815 128.304 80.8643 128.279 81.5503C128.778 82.1428 129.101 82.854 129.214 83.6087C129.327 84.3633 129.225 85.1333 128.92 85.8369C128.615 86.5405 128.117 87.1516 127.48 87.6053C126.843 88.0591 126.09 88.3387 125.301 88.4144L124.62 92.8958C123.545 91.3488 122.564 89.4215 121.668 87.1092C121.152 86.5845 120.784 85.941 120.601 85.2406C119.582 84.5579 118.872 83.5269 118.617 82.3582C118.361 81.1894 118.579 79.971 119.227 78.9516L119.173 78.7215C118.502 78.4684 117.897 78.0755 117.403 77.5711C116.908 77.0666 116.536 76.4632 116.313 75.804C116.09 75.1449 116.021 74.4464 116.112 73.7588C116.203 73.0712 116.451 72.4114 116.839 71.8269C115.901 72.3597 114.804 72.5745 113.724 72.437C112.644 72.2996 111.643 71.8177 110.882 71.0687C110.538 71.9529 109.924 72.7168 109.122 73.2607C108.32 73.8047 107.365 74.1033 106.383 74.1178C105.402 74.1322 104.438 73.8618 103.619 73.3417C102.799 72.8217 102.162 72.0761 101.79 71.2025C101.536 71.2285 101.282 71.2536 101.028 71.2776C100.67 72.079 100.086 72.7684 99.3427 73.2686C98.5994 73.7688 97.7258 74.06 96.82 74.1095C95.9142 74.159 95.0119 73.9648 94.2145 73.5488C93.417 73.1328 92.7558 72.5113 92.3052 71.7542L91.7437 71.7612C91.3041 72.4963 90.6657 73.1033 89.8962 73.5176C89.1267 73.9319 88.2549 74.1381 87.3733 74.1142C86.4918 74.0904 85.6334 73.8374 84.8894 73.3822C84.1453 72.927 83.5434 72.2865 83.1474 71.5288L82.1465 71.456C81.732 72.2857 81.0731 72.98 80.2516 73.4525C79.4301 73.925 78.4823 74.1549 77.5261 74.1136C76.5698 74.0723 75.6472 73.7617 74.8731 73.2203C74.0989 72.679 73.5073 71.9307 73.1718 71.0687C72.2856 71.9349 71.0527 72.4725 69.688 72.4725C68.0693 72.4725 66.6362 71.7166 65.7475 70.5522L65.6938 70.9161C66.3084 71.467 66.7648 72.161 67.0188 72.9311C67.2728 73.7012 67.3159 74.5213 67.1438 75.3121C66.9717 76.1029 66.5903 76.8376 66.0365 77.4451C65.4826 78.0527 64.7751 78.5125 63.9824 78.7802C64.4439 79.4431 64.7222 80.2081 64.7909 81.003C64.8597 81.798 64.7166 82.5966 64.3753 83.3237C64.034 84.0507 63.5057 84.6822 62.8402 85.1585C62.1747 85.6347 61.394 85.9401 60.5717 86.0458C59.2991 88.4212 57.8585 90.7099 56.2602 92.8958L55.8012 88.3815C54.8429 88.2327 53.9628 87.783 53.2983 87.1026C52.6338 86.4221 52.2223 85.5493 52.128 84.6203C52.0338 83.6913 52.2621 82.7585 52.7773 81.9674C53.2925 81.1763 54.0657 80.5715 54.976 80.2474L54.9467 79.9516C53.8408 79.8255 52.813 79.3397 52.0337 78.5747C51.2544 77.8098 50.7704 76.8116 50.6621 75.7459C50.5538 74.6801 50.8277 73.6108 51.4382 72.7153C52.0488 71.8197 52.9594 71.1518 54.019 70.8222L53.9873 70.4842C52.8867 70.2512 51.9038 69.6593 51.2053 68.809C50.5068 67.9586 50.1358 66.9021 50.155 65.8187C50.1743 64.7353 50.5827 63.6916 51.311 62.8647C52.0393 62.0378 53.0426 61.4786 54.1508 61.2819C54.1826 61.1411 54.2167 61.0049 54.2534 60.8641C53.3295 60.2623 52.6479 59.3743 52.322 58.3481C51.9961 57.3218 52.0456 56.2192 52.4624 55.2238C52.8791 54.2284 53.6378 53.4003 54.6122 52.8774C55.5866 52.3544 56.718 52.1682 57.8178 52.3497C57.4306 51.3979 57.377 50.3506 57.6651 49.3669C57.9531 48.3831 58.5672 47.5166 59.414 46.8989C60.2607 46.2812 61.294 45.946 62.3569 45.9443C63.4198 45.9426 64.4542 46.2744 65.3032 46.8894C65.2431 45.7887 65.5876 44.7028 66.2764 43.8218C66.9652 42.9408 67.9544 42.3209 69.0707 42.0707C70.1871 41.8205 71.3594 41.9558 72.3824 42.4531C73.4053 42.9504 74.2137 43.7779 74.666 44.7907L74.7881 44.786C75.0949 43.8278 75.7128 42.9892 76.5511 42.393C77.3894 41.7968 78.4042 41.4743 79.447 41.4727C80.4897 41.4711 81.5056 41.7906 82.3458 42.3842C83.1861 42.9779 83.8067 43.8146 84.1167 44.7719H84.5635C84.875 43.8186 85.4948 42.9858 86.3326 42.3946C87.1703 41.8033 88.1825 41.4845 89.2217 41.4845C90.2609 41.4845 91.273 41.8033 92.1108 42.3946C92.9486 42.9858 93.5683 43.8186 93.8799 44.7719H94.8149Z" fill="#362C47"/>
<mask id="mask2_438_42" style="mask-type:alpha" maskUnits="userSpaceOnUse" x="50" y="41" width="82" height="52">
<path d="M94.8149 44.772C95.1265 43.8188 95.7463 42.9859 96.584 42.3947C97.4218 41.8034 98.4339 41.4846 99.4732 41.4846C100.512 41.4846 101.524 41.8034 102.362 42.3947C103.2 42.9859 103.82 43.8188 104.131 44.772H105.494C105.93 43.8062 106.692 43.0096 107.656 42.5102C108.621 42.0108 109.732 41.8377 110.811 42.0186C111.89 42.1996 112.874 42.7241 113.606 43.5079C114.337 44.2917 114.773 45.2892 114.844 46.3402C115.027 46.4106 115.21 46.4881 115.391 46.5632C116.229 45.8913 117.277 45.5087 118.367 45.4763C119.458 45.444 120.528 45.7637 121.408 46.3846C122.287 47.0054 122.925 47.8916 123.22 48.9018C123.514 49.9119 123.448 50.9878 123.033 51.9578L123.404 52.3756C124.442 52.1732 125.521 52.3011 126.478 52.7401C127.434 53.1791 128.216 53.9054 128.705 54.8092C129.194 55.7131 129.365 56.7455 129.19 57.7505C129.016 58.7556 128.506 59.6787 127.737 60.3806C127.841 60.749 127.933 61.12 128.016 61.4933C128.95 61.8234 129.757 62.4203 130.329 63.2039C130.901 63.9876 131.21 64.9206 131.215 65.8779C131.22 66.8352 130.92 67.771 130.356 68.5599C129.792 69.3488 128.991 69.9531 128.06 70.2918L127.945 71.0524C128.781 71.4364 129.487 72.0414 129.979 72.7968C130.471 73.5521 130.729 74.4265 130.724 75.3178C130.718 76.209 130.449 77.0803 129.947 77.8299C129.446 78.5794 128.732 79.1761 127.891 79.5503C128.172 80.1816 128.304 80.8644 128.279 81.5504C128.778 82.1429 129.101 82.8541 129.214 83.6088C129.327 84.3634 129.225 85.1334 128.92 85.837C128.615 86.5406 128.117 87.1517 127.48 87.6055C126.843 88.0592 126.09 88.3388 125.301 88.4145L124.62 92.8959C123.545 91.3489 122.564 89.4216 121.668 87.1093C121.152 86.5846 120.784 85.9412 120.601 85.2407C119.582 84.558 118.872 83.5271 118.617 82.3583C118.361 81.1895 118.579 79.9711 119.227 78.9517L119.173 78.7217C118.502 78.4685 117.897 78.0756 117.403 77.5712C116.908 77.0667 116.536 76.4633 116.313 75.8042C116.09 75.145 116.021 74.4466 116.112 73.7589C116.203 73.0713 116.451 72.4115 116.839 71.827C115.901 72.3598 114.804 72.5746 113.724 72.4371C112.644 72.2997 111.643 71.8179 110.882 71.0688C110.538 71.953 109.924 72.7169 109.122 73.2608C108.32 73.8048 107.365 74.1035 106.383 74.1179C105.402 74.1324 104.438 73.8619 103.619 73.3418C102.799 72.8218 102.162 72.0763 101.79 71.2026C101.536 71.2286 101.282 71.2537 101.028 71.2777C100.67 72.0791 100.086 72.7686 99.3427 73.2688C98.5994 73.769 97.7258 74.0602 96.82 74.1096C95.9142 74.1591 95.0119 73.965 94.2145 73.5489C93.417 73.1329 92.7558 72.5114 92.3052 71.7543L91.7437 71.7613C91.3041 72.4965 90.6657 73.1034 89.8962 73.5177C89.1267 73.932 88.2549 74.1382 87.3733 74.1144C86.4918 74.0905 85.6334 73.8376 84.8894 73.3823C84.1453 72.9271 83.5434 72.2866 83.1474 71.5289L82.1465 71.4561C81.732 72.2858 81.0731 72.9801 80.2516 73.4526C79.4301 73.9251 78.4823 74.155 77.5261 74.1137C76.5698 74.0725 75.6472 73.7618 74.8731 73.2205C74.0989 72.6791 73.5073 71.9309 73.1718 71.0688C72.2856 71.935 71.0527 72.4726 69.688 72.4726C68.0693 72.4726 66.6362 71.7167 65.7475 70.5524L65.6938 70.9162C66.3084 71.4671 66.7648 72.1611 67.0188 72.9312C67.2728 73.7013 67.3159 74.5214 67.1438 75.3122C66.9717 76.103 66.5903 76.8377 66.0365 77.4452C65.4826 78.0528 64.7751 78.5127 63.9824 78.7804C64.4439 79.4432 64.7222 80.2082 64.7909 81.0031C64.8597 81.7981 64.7166 82.5968 64.3753 83.3238C64.034 84.0509 63.5057 84.6823 62.8402 85.1586C62.1747 85.6348 61.394 85.9402 60.5717 86.0459C59.2991 88.4213 57.8585 90.71 56.2602 92.8959L55.8012 88.3817C54.8429 88.2329 53.9628 87.7831 53.2983 87.1027C52.6338 86.4223 52.2223 85.5494 52.128 84.6204C52.0338 83.6914 52.2621 82.7586 52.7773 81.9675C53.2925 81.1764 54.0657 80.5716 54.976 80.2476L54.9467 79.9518C53.8408 79.8257 52.813 79.3398 52.0337 78.5749C51.2544 77.8099 50.7704 76.8118 50.6621 75.746C50.5538 74.6803 50.8277 73.6109 51.4382 72.7154C52.0488 71.8198 52.9594 71.1519 54.019 70.8223L53.9873 70.4843C52.8867 70.2513 51.9038 69.6594 51.2053 68.8091C50.5068 67.9587 50.1358 66.9023 50.155 65.8188C50.1743 64.7354 50.5827 63.6917 51.311 62.8648C52.0393 62.038 53.0426 61.4787 54.1508 61.2821C54.1826 61.1412 54.2167 61.005 54.2534 60.8642C53.3295 60.2624 52.6479 59.3744 52.322 58.3482C51.9961 57.322 52.0456 56.2194 52.4624 55.224C52.8791 54.2286 53.6378 53.4005 54.6122 52.8775C55.5866 52.3545 56.718 52.1683 57.8178 52.3498C57.4306 51.398 57.377 50.3507 57.6651 49.367C57.9531 48.3832 58.5672 47.5167 59.414 46.899C60.2607 46.2813 61.294 45.9462 62.3569 45.9445C63.4198 45.9427 64.4542 46.2745 65.3032 46.8895C65.2431 45.7888 65.5876 44.7029 66.2764 43.8219C66.9652 42.9409 67.9544 42.321 69.0707 42.0708C70.1871 41.8206 71.3594 41.956 72.3824 42.4533C73.4053 42.9506 74.2137 43.7781 74.666 44.7908L74.7881 44.7861C75.0949 43.8279 75.7128 42.9893 76.5511 42.3931C77.3894 41.7969 78.4042 41.4744 79.447 41.4728C80.4897 41.4713 81.5056 41.7907 82.3458 42.3844C83.1861 42.978 83.8067 43.8148 84.1167 44.772H84.5635C84.875 43.8188 85.4948 42.9859 86.3326 42.3947C87.1703 41.8034 88.1825 41.4846 89.2217 41.4846C90.2609 41.4846 91.273 41.8034 92.1108 42.3947C92.9486 42.9859 93.5683 43.8188 93.8799 44.772H94.8149Z" fill="white"/>
</mask>
<g mask="url(#mask2_438_42)">
<g style="mix-blend-mode:overlay" opacity="0.259">
<path d="M48.9355 40.0767H131.943V94.0694H48.9355V40.0767Z" fill="white"/>
</g>
</g>
<path d="M78.2305 138.672V145.715C78.2305 148.828 79.5166 151.813 81.8059 154.014C84.0951 156.216 87.2001 157.452 90.4376 157.452C93.6751 157.452 96.78 156.216 99.0693 154.014C101.359 151.813 102.645 148.828 102.645 145.715V138.672L118.873 143.473C123.364 144.802 127.294 147.48 130.085 151.114C132.877 154.749 134.383 159.148 134.383 163.666V173.885H46.4922V163.666C46.4922 159.148 47.9985 154.749 50.7901 151.114C53.5816 147.48 57.5114 144.802 62.0025 143.473L78.2305 138.672Z" fill="#7555CA"/>
<g style="mix-blend-mode:overlay" opacity="0.36">
<path d="M81.2793 101.112C81.2793 100.645 81.4722 100.198 81.8156 99.8675C82.159 99.5373 82.6247 99.3518 83.1104 99.3518C83.596 99.3518 84.0617 99.5373 84.4051 99.8675C84.7485 100.198 84.9414 100.645 84.9414 101.112C84.9414 103.075 87.1729 105.221 90.4346 105.221C93.6963 105.221 95.9278 103.075 95.9278 101.112C95.9278 100.645 96.1207 100.198 96.4641 99.8675C96.8075 99.5373 97.2732 99.3518 97.7588 99.3518C98.2444 99.3518 98.7102 99.5373 99.0536 99.8675C99.397 100.198 99.5899 100.645 99.5899 101.112C99.5899 105.019 95.7178 108.742 90.4346 108.742C85.1514 108.742 81.2793 105.019 81.2793 101.112Z" fill="black"/>
</g>
<path fill-rule="evenodd" clip-rule="evenodd" d="M79.7271 109.734C75.8257 110.727 73.3477 114.235 73.3477 118.113V129.059C73.3477 131.4 74.5537 133.599 76.7095 134.688C80.103 136.402 85.5816 138.672 90.8208 138.672C96.0454 138.672 101.221 136.411 104.395 134.695C106.426 133.599 107.527 131.482 107.527 129.245V118.113C107.527 114.232 105.049 110.727 101.148 109.734C97.94 108.92 93.9898 108.155 90.4375 108.155C86.8853 108.155 82.9351 108.92 79.7271 109.734ZM80.4424 113.044C78.4844 113.566 77.2295 115.314 77.2295 117.265V123.533C77.2295 126.033 78.5991 128.362 80.9893 129.348C83.6358 130.439 87.3003 131.63 90.6914 131.63C94.0728 131.63 97.6421 130.446 100.21 129.357C102.544 128.367 103.865 126.071 103.865 123.618V117.303C103.865 115.331 102.586 113.57 100.611 113.058C97.9912 112.378 94.1509 111.584 90.4375 111.584C86.7461 111.584 82.9961 112.366 80.4424 113.044Z" fill="#362C47"/>
<path d="M82.4522 122.654C81.9808 122.541 81.5755 122.252 81.3255 121.852C81.0756 121.451 81.0013 120.971 81.1192 120.518C81.237 120.065 81.5373 119.675 81.9539 119.435C82.3706 119.194 82.8695 119.123 83.3408 119.236C89.2808 120.666 93.5093 119.987 96.251 117.354C96.4187 117.181 96.6208 117.042 96.8454 116.946C97.07 116.849 97.3125 116.798 97.5583 116.793C97.8042 116.789 98.0484 116.833 98.2764 116.921C98.5044 117.01 98.7115 117.142 98.8854 117.309C99.0593 117.476 99.1963 117.675 99.2884 117.894C99.3805 118.114 99.4258 118.349 99.4214 118.585C99.4171 118.821 99.3633 119.054 99.2632 119.27C99.1631 119.486 99.0188 119.681 98.8389 119.842C95.0694 123.469 89.5323 124.356 82.4522 122.654Z" fill="#1B0640"/>
</g>
</g>
<rect x="10.752" y="10.0625" width="159.375" height="159.375" rx="79.6875" stroke="white" stroke-width="3.125"/>
</g>
<defs>
<filter id="filter0_dddddd_438_42" x="0.595697" y="0.687494" width="291.406" height="309.375" filterUnits="userSpaceOnUse" color-interpolation-filters="sRGB">
<feFlood flood-opacity="0" result="BackgroundImageFix"/>
<feColorMatrix in="SourceAlpha" type="matrix" values="0 0 0 0 0 0 0 0 0 0 0 0 0 0 0 0 0 0 127 0" result="hardAlpha"/>
<feOffset/>
<feColorMatrix type="matrix" values="0 0 0 0 0 0 0 0 0 0 0 0 0 0 0 0 0 0 0.3 0"/>
<feBlend mode="normal" in2="BackgroundImageFix" result="effect1_dropShadow_438_42"/>
<feColorMatrix in="SourceAlpha" type="matrix" values="0 0 0 0 0 0 0 0 0 0 0 0 0 0 0 0 0 0 127 0" result="hardAlpha"/>
<feOffset dx="3.125" dy="3.90625"/>
<feGaussianBlur stdDeviation="5.85938"/>
<feColorMatrix type="matrix" values="0 0 0 0 0 0 0 0 0 0 0 0 0 0 0 0 0 0 0.29 0"/>
<feBlend mode="normal" in2="effect1_dropShadow_438_42" result="effect2_dropShadow_438_42"/>
<feColorMatrix in="SourceAlpha" type="matrix" values="0 0 0 0 0 0 0 0 0 0 0 0 0 0 0 0 0 0 127 0" result="hardAlpha"/>
<feOffset dx="13.2813" dy="16.4063"/>
<feGaussianBlur stdDeviation="10.5469"/>
<feColorMatrix type="matrix" values="0 0 0 0 0 0 0 0 0 0 0 0 0 0 0 0 0 0 0.26 0"/>
<feBlend mode="normal" in2="effect2_dropShadow_438_42" result="effect3_dropShadow_438_42"/>
<feColorMatrix in="SourceAlpha" type="matrix" values="0 0 0 0 0 0 0 0 0 0 0 0 0 0 0 0 0 0 127 0" result="hardAlpha"/>
<feOffset dx="30.4688" dy="36.7188"/>
<feGaussianBlur stdDeviation="14.4531"/>
<feColorMatrix type="matrix" values="0 0 0 0 0 0 0 0 0 0 0 0 0 0 0 0 0 0 0.15 0"/>
<feBlend mode="normal" in2="effect3_dropShadow_438_42" result="effect4_dropShadow_438_42"/>
<feColorMatrix in="SourceAlpha" type="matrix" values="0 0 0 0 0 0 0 0 0 0 0 0 0 0 0 0 0 0 127 0" result="hardAlpha"/>
<feOffset dx="53.9063" dy="65.6251"/>
<feGaussianBlur stdDeviation="16.7969"/>
<feColorMatrix type="matrix" values="0 0 0 0 0 0 0 0 0 0 0 0 0 0 0 0 0 0 0.04 0"/>
<feBlend mode="normal" in2="effect4_dropShadow_438_42" result="effect5_dropShadow_438_42"/>
<feColorMatrix in="SourceAlpha" type="matrix" values="0 0 0 0 0 0 0 0 0 0 0 0 0 0 0 0 0 0 127 0" result="hardAlpha"/>
<feOffset dx="83.5938" dy="102.344"/>
<feGaussianBlur stdDeviation="18.3594"/>
<feColorMatrix type="matrix" values="0 0 0 0 0 0 0 0 0 0 0 0 0 0 0 0 0 0 0.01 0"/>
<feBlend mode="normal" in2="effect5_dropShadow_438_42" result="effect6_dropShadow_438_42"/>
<feBlend mode="normal" in="SourceGraphic" in2="effect6_dropShadow_438_42" result="shape"/>
</filter>
<linearGradient id="paint0_linear_438_42" x1="228.573" y1="-11.4304" x2="-106.977" y2="107.469" gradientUnits="userSpaceOnUse">
<stop stop-color="#FFC700"/>
<stop offset="1" stop-color="#FFA215" stop-opacity="0.96"/>
</linearGradient>
<clipPath id="clip0_438_42">
<rect x="12.3145" y="11.625" width="156.25" height="156.25" rx="78.125" fill="white"/>
</clipPath>
</defs>
</svg>
