<svg width="168" height="207" viewBox="0 0 168 207" fill="none" xmlns="http://www.w3.org/2000/svg">
<rect x="0.5" width="167" height="207" rx="1" fill="white"/>
<rect x="10.6" y="10.1" width="146.8" height="186.8" rx="4.9" fill="#FFFDFD" stroke="black" stroke-width="0.2"/>
<path d="M157.5 58L10.5 159.5V191C10.9444 194.869 12.6003 196.171 16.5 197H151.5C156.249 196.084 157.524 194.153 157.5 189V58Z" fill="#FFC231" stroke="black" stroke-width="0.1"/>
<path d="M154.5 81C154.5 83.7614 152.261 86 149.5 86C146.739 86 144.5 83.7614 144.5 81C144.5 78.2386 146.739 76 149.5 76C152.261 76 154.5 78.2386 154.5 81ZM145.352 81C145.352 83.2908 147.209 85.1478 149.5 85.1478C151.791 85.1478 153.648 83.2908 153.648 81C153.648 78.7092 151.791 76.8522 149.5 76.8522C147.209 76.8522 145.352 78.7092 145.352 81Z" fill="white"/>
<path d="M154.5 105C154.5 107.761 152.261 110 149.5 110C146.739 110 144.5 107.761 144.5 105C144.5 102.239 146.739 100 149.5 100C152.261 100 154.5 102.239 154.5 105ZM145.352 105C145.352 107.291 147.209 109.148 149.5 109.148C151.791 109.148 153.648 107.291 153.648 105C153.648 102.709 151.791 100.852 149.5 100.852C147.209 100.852 145.352 102.709 145.352 105Z" fill="white"/>
<path d="M154.5 93C154.5 95.7614 152.261 98 149.5 98C146.739 98 144.5 95.7614 144.5 93C144.5 90.2386 146.739 88 149.5 88C152.261 88 154.5 90.2386 154.5 93ZM145.352 93C145.352 95.2908 147.209 97.1478 149.5 97.1478C151.791 97.1478 153.648 95.2908 153.648 93C153.648 90.7092 151.791 88.8522 149.5 88.8522C147.209 88.8522 145.352 90.7092 145.352 93Z" fill="white"/>
<path d="M63.728 154.139C63.728 154.67 63.5999 155.168 63.3436 155.633C63.0969 156.098 62.7031 156.473 62.1621 156.758C61.6307 157.043 60.9569 157.185 60.1407 157.185H58.4752V161H56.4822V151.064H60.1407C60.9094 151.064 61.5642 151.197 62.1052 151.462C62.6461 151.728 63.0495 152.093 63.3152 152.558C63.5904 153.023 63.728 153.55 63.728 154.139ZM60.0553 155.576C60.6057 155.576 61.0138 155.453 61.2795 155.206C61.5453 154.95 61.6781 154.594 61.6781 154.139C61.6781 153.171 61.1372 152.687 60.0553 152.687H58.4752V155.576H60.0553ZM67.1359 154.338C67.3921 153.92 67.7243 153.593 68.1324 153.356C68.5499 153.118 69.0245 153 69.5559 153V155.092H69.0292C68.4028 155.092 67.9283 155.239 67.6057 155.534C67.2925 155.828 67.1359 156.34 67.1359 157.071V161H65.143V153.114H67.1359V154.338ZM78.2294 156.886C78.2294 157.171 78.2104 157.427 78.1725 157.655H72.4072C72.4546 158.224 72.6539 158.67 73.0051 158.993C73.3562 159.315 73.788 159.477 74.3005 159.477C75.0407 159.477 75.5674 159.159 75.8806 158.523H78.0301C77.8024 159.282 77.3658 159.909 76.7205 160.402C76.0752 160.886 75.2827 161.128 74.3432 161.128C73.584 161.128 72.9007 160.962 72.2933 160.63C71.6954 160.288 71.2257 159.809 70.884 159.192C70.5519 158.575 70.3858 157.863 70.3858 157.057C70.3858 156.241 70.5519 155.524 70.884 154.907C71.2162 154.29 71.6812 153.816 72.2791 153.484C72.877 153.152 73.565 152.986 74.3432 152.986C75.0929 152.986 75.762 153.147 76.3504 153.47C76.9483 153.792 77.4085 154.252 77.7312 154.85C78.0634 155.439 78.2294 156.117 78.2294 156.886ZM76.1653 156.317C76.1558 155.804 75.9708 155.396 75.6101 155.092C75.2495 154.779 74.8082 154.623 74.2863 154.623C73.7928 154.623 73.3752 154.774 73.0335 155.078C72.7014 155.372 72.4974 155.785 72.4214 156.317H76.1653ZM82.9725 159.164L84.9654 153.114H87.0865L84.1682 161H81.7482L78.8442 153.114H80.9795L82.9725 159.164ZM89.2165 152.174C88.8654 152.174 88.5712 152.065 88.3339 151.847C88.1062 151.619 87.9923 151.339 87.9923 151.007C87.9923 150.675 88.1062 150.399 88.3339 150.181C88.5712 149.953 88.8654 149.84 89.2165 149.84C89.5677 149.84 89.8571 149.953 90.0849 150.181C90.3221 150.399 90.4408 150.675 90.4408 151.007C90.4408 151.339 90.3221 151.619 90.0849 151.847C89.8571 152.065 89.5677 152.174 89.2165 152.174ZM90.1988 153.114V161H88.2058V153.114H90.1988ZM99.499 156.886C99.499 157.171 99.48 157.427 99.442 157.655H93.6767C93.7242 158.224 93.9235 158.67 94.2746 158.993C94.6257 159.315 95.0576 159.477 95.57 159.477C96.3103 159.477 96.837 159.159 97.1501 158.523H99.2997C99.0719 159.282 98.6354 159.909 97.99 160.402C97.3447 160.886 96.5523 161.128 95.6127 161.128C94.8535 161.128 94.1702 160.962 93.5628 160.63C92.965 160.288 92.4952 159.809 92.1536 159.192C91.8214 158.575 91.6553 157.863 91.6553 157.057C91.6553 156.241 91.8214 155.524 92.1536 154.907C92.4857 154.29 92.9507 153.816 93.5486 153.484C94.1465 153.152 94.8345 152.986 95.6127 152.986C96.3625 152.986 97.0315 153.147 97.6199 153.47C98.2178 153.792 98.6781 154.252 99.0007 154.85C99.3329 155.439 99.499 156.117 99.499 156.886ZM97.4348 156.317C97.4254 155.804 97.2403 155.396 96.8797 155.092C96.519 154.779 96.0777 154.623 95.5558 154.623C95.0623 154.623 94.6447 154.774 94.3031 155.078C93.9709 155.372 93.7669 155.785 93.691 156.317H97.4348ZM111.886 153.114L109.58 161H107.431L105.993 155.491L104.555 161H102.391L100.071 153.114H102.092L103.488 159.121L104.996 153.114H107.103L108.584 159.107L109.979 153.114H111.886Z" fill="white"/>
<path fill-rule="evenodd" clip-rule="evenodd" d="M22.5 20C20.567 20 19 21.3431 19 23C19 24.6569 20.567 26 22.5 26C24.433 26 26 24.6569 26 23C26 21.3431 24.433 20 22.5 20ZM20.299 21.2308V22.979H20.7418V21.9523L21.3391 22.7942H21.5518L22.1524 21.9297L22.155 22.979H22.5979L22.592 21.2308H22.2045L21.4534 22.3163L20.6894 21.2308H20.299ZM23.6062 21.2308L22.6971 22.979H23.1808L23.3626 22.6044H24.308L24.4891 22.979H24.9844L24.0724 21.2308H23.6062ZM24.1596 22.2972L23.8362 21.6281L23.5116 22.2972H24.1596ZM20.9091 25.1328V23.7143H20.2564V23.3846H22.0338V23.7143H21.3811V25.1328H20.9091ZM23.0919 25.0954C23.2298 25.1403 23.3794 25.1628 23.5406 25.1628C23.6999 25.1628 23.8465 25.1403 23.9806 25.0954C24.1165 25.0504 24.2341 24.988 24.3331 24.9081C24.4341 24.8265 24.5128 24.7307 24.5691 24.6208C24.6255 24.5093 24.6536 24.3886 24.6536 24.2587C24.6536 24.1272 24.6255 24.0073 24.5691 23.8991C24.5128 23.7892 24.4341 23.6935 24.3331 23.6119C24.2341 23.5303 24.1165 23.467 23.9806 23.4221C23.8465 23.3771 23.6989 23.3546 23.5377 23.3546C23.3784 23.3546 23.2308 23.3771 23.0948 23.4221C22.9588 23.467 22.8403 23.5303 22.7393 23.6119C22.6383 23.6935 22.5597 23.7892 22.5033 23.8991C22.4489 24.009 22.4217 24.1289 22.4217 24.2587C22.4217 24.3886 22.4489 24.5085 22.5033 24.6183C22.5597 24.7282 22.6374 24.824 22.7364 24.9056C22.8374 24.9871 22.9559 25.0504 23.0919 25.0954ZM23.7883 24.7782C23.7125 24.8048 23.629 24.8181 23.5377 24.8181C23.4464 24.8181 23.3619 24.8048 23.2842 24.7782C23.2065 24.7515 23.1385 24.7133 23.0802 24.6633C23.0239 24.6134 22.9792 24.5542 22.9462 24.486C22.9151 24.4161 22.8996 24.3403 22.8996 24.2587C22.8996 24.1755 22.9151 24.0997 22.9462 24.0315C22.9792 23.9632 23.0249 23.9041 23.0832 23.8541C23.1414 23.8042 23.2084 23.7659 23.2842 23.7393C23.3619 23.7126 23.4464 23.6993 23.5377 23.6993C23.629 23.6993 23.7135 23.7126 23.7912 23.7393C23.8689 23.7659 23.9359 23.8042 23.9922 23.8541C24.0505 23.9041 24.0952 23.9632 24.1262 24.0315C24.1593 24.0997 24.1758 24.1755 24.1758 24.2587C24.1758 24.342 24.1593 24.4177 24.1262 24.486C24.0952 24.5542 24.0505 24.6134 23.9922 24.6633C23.9339 24.7133 23.866 24.7515 23.7883 24.7782Z" fill="#FFC231"/>
<path d="M32.2871 21.3947V25H31.564V22.655L30.5981 25H30.0506L29.0795 22.655V25H28.3564V21.3947H29.1777L30.3243 24.0754L31.471 21.3947H32.2871ZM32.8161 23.5589C32.8161 23.2697 32.8729 23.0131 32.9866 22.7893C33.1037 22.5655 33.2603 22.3933 33.4566 22.2728C33.6563 22.1522 33.8784 22.092 34.1229 22.092C34.3364 22.092 34.5224 22.135 34.6808 22.2211C34.8426 22.3072 34.9717 22.4157 35.0682 22.5465V22.1385H35.7965V25H35.0682V24.5816C34.9752 24.7159 34.8461 24.8278 34.6808 24.9174C34.5189 25.0034 34.3313 25.0465 34.1178 25.0465C33.8767 25.0465 33.6563 24.9845 33.4566 24.8605C33.2603 24.7366 33.1037 24.5627 32.9866 24.3389C32.8729 24.1116 32.8161 23.8516 32.8161 23.5589ZM35.0682 23.5692C35.0682 23.3936 35.0337 23.2438 34.9649 23.1199C34.896 22.9925 34.803 22.896 34.6859 22.8306C34.5689 22.7617 34.4432 22.7273 34.3089 22.7273C34.1746 22.7273 34.0506 22.76 33.937 22.8254C33.8233 22.8909 33.7304 22.9873 33.6581 23.1147C33.5892 23.2387 33.5547 23.3867 33.5547 23.5589C33.5547 23.7311 33.5892 23.8826 33.6581 24.0134C33.7304 24.1409 33.8233 24.239 33.937 24.3079C34.0541 24.3767 34.178 24.4112 34.3089 24.4112C34.4432 24.4112 34.5689 24.3785 34.6859 24.313C34.803 24.2442 34.896 24.1477 34.9649 24.0238C35.0337 23.8964 35.0682 23.7449 35.0682 23.5692ZM36.3168 23.5692C36.3168 23.2731 36.377 23.0148 36.4975 22.7945C36.6181 22.5706 36.7851 22.3985 36.9986 22.2779C37.2121 22.154 37.4566 22.092 37.732 22.092C38.0867 22.092 38.3794 22.1815 38.6101 22.3606C38.8443 22.5362 39.001 22.7841 39.0802 23.1044H38.3002C38.2589 22.9804 38.1883 22.884 38.0884 22.8151C37.992 22.7428 37.8715 22.7066 37.7269 22.7066C37.5203 22.7066 37.3567 22.7824 37.2362 22.9339C37.1157 23.082 37.0554 23.2938 37.0554 23.5692C37.0554 23.8413 37.1157 24.053 37.2362 24.2046C37.3567 24.3526 37.5203 24.4267 37.7269 24.4267C38.0196 24.4267 38.2107 24.2958 38.3002 24.0341H39.0802C39.001 24.344 38.8443 24.5902 38.6101 24.7727C38.376 24.9552 38.0833 25.0465 37.732 25.0465C37.4566 25.0465 37.2121 24.9862 36.9986 24.8657C36.7851 24.7417 36.6181 24.5696 36.4975 24.3492C36.377 24.1254 36.3168 23.8654 36.3168 23.5692ZM40.333 22.5827C40.426 22.4312 40.5465 22.3124 40.6946 22.2263C40.8461 22.1402 41.0183 22.0971 41.2111 22.0971V22.8564H41.02C40.7928 22.8564 40.6206 22.9098 40.5035 23.0166C40.3899 23.1233 40.333 23.3093 40.333 23.5744V25H39.6099V22.1385H40.333V22.5827ZM42.9688 25.0465C42.6934 25.0465 42.4454 24.9862 42.225 24.8657C42.0047 24.7417 41.8308 24.5678 41.7034 24.344C41.5794 24.1202 41.5174 23.8619 41.5174 23.5692C41.5174 23.2765 41.5811 23.0183 41.7085 22.7945C41.8394 22.5706 42.0167 22.3985 42.2405 22.2779C42.4644 22.154 42.714 22.092 42.9895 22.092C43.265 22.092 43.5146 22.154 43.7385 22.2779C43.9623 22.3985 44.1379 22.5706 44.2653 22.7945C44.3962 23.0183 44.4616 23.2765 44.4616 23.5692C44.4616 23.8619 44.3944 24.1202 44.2601 24.344C44.1293 24.5678 43.9502 24.7417 43.723 24.8657C43.4991 24.9862 43.2478 25.0465 42.9688 25.0465ZM42.9688 24.4163C43.0997 24.4163 43.2219 24.3853 43.3356 24.3234C43.4526 24.2579 43.5456 24.1615 43.6145 24.0341C43.6834 23.9067 43.7178 23.7517 43.7178 23.5692C43.7178 23.2972 43.6455 23.0889 43.5009 22.9442C43.3597 22.7962 43.1858 22.7221 42.9792 22.7221C42.7726 22.7221 42.5987 22.7962 42.4575 22.9442C42.3197 23.0889 42.2509 23.2972 42.2509 23.5692C42.2509 23.8413 42.318 24.0513 42.4523 24.1994C42.5901 24.344 42.7622 24.4163 42.9688 24.4163Z" fill="#7201C2"/>
<path d="M47.4455 21.3947V21.9783H46.4848V25H45.7616V21.9783H44.8009V21.3947H47.4455ZM49.2438 25.0465C48.9683 25.0465 48.7204 24.9862 48.5 24.8657C48.2796 24.7417 48.1057 24.5678 47.9783 24.344C47.8543 24.1202 47.7923 23.8619 47.7923 23.5692C47.7923 23.2765 47.8561 23.0183 47.9835 22.7945C48.1143 22.5706 48.2917 22.3985 48.5155 22.2779C48.7393 22.154 48.989 22.092 49.2644 22.092C49.5399 22.092 49.7896 22.154 50.0134 22.2779C50.2372 22.3985 50.4128 22.5706 50.5402 22.7945C50.6711 23.0183 50.7365 23.2765 50.7365 23.5692C50.7365 23.8619 50.6694 24.1202 50.5351 24.344C50.4042 24.5678 50.2252 24.7417 49.9979 24.8657C49.7741 24.9862 49.5227 25.0465 49.2438 25.0465ZM49.2438 24.4163C49.3746 24.4163 49.4969 24.3853 49.6105 24.3234C49.7276 24.2579 49.8206 24.1615 49.8894 24.0341C49.9583 23.9067 49.9927 23.7517 49.9927 23.5692C49.9927 23.2972 49.9204 23.0889 49.7758 22.9442C49.6346 22.7962 49.4607 22.7221 49.2541 22.7221C49.0475 22.7221 48.8736 22.7962 48.7324 22.9442C48.5947 23.0889 48.5258 23.2972 48.5258 23.5692C48.5258 23.8413 48.593 24.0513 48.7273 24.1994C48.865 24.344 49.0372 24.4163 49.2438 24.4163ZM53.9684 22.1385V25H53.2401V24.6384C53.1471 24.7624 53.0249 24.8605 52.8733 24.9329C52.7253 25.0017 52.5634 25.0362 52.3878 25.0362C52.164 25.0362 51.966 24.9897 51.7938 24.8967C51.6216 24.8003 51.4856 24.6608 51.3858 24.4783C51.2893 24.2924 51.2411 24.072 51.2411 23.8172V22.1385H51.9643V23.7139C51.9643 23.9411 52.0211 24.1167 52.1347 24.2407C52.2484 24.3612 52.4033 24.4215 52.5996 24.4215C52.7993 24.4215 52.956 24.3612 53.0696 24.2407C53.1833 24.1167 53.2401 23.9411 53.2401 23.7139V22.1385H53.9684ZM54.4959 23.5692C54.4959 23.2731 54.5562 23.0148 54.6767 22.7945C54.7972 22.5706 54.9642 22.3985 55.1777 22.2779C55.3912 22.154 55.6357 22.092 55.9112 22.092C56.2659 22.092 56.5586 22.1815 56.7893 22.3606C57.0234 22.5362 57.1801 22.7841 57.2593 23.1044H56.4794C56.438 22.9804 56.3674 22.884 56.2676 22.8151C56.1712 22.7428 56.0506 22.7066 55.906 22.7066C55.6994 22.7066 55.5358 22.7824 55.4153 22.9339C55.2948 23.082 55.2345 23.2938 55.2345 23.5692C55.2345 23.8413 55.2948 24.053 55.4153 24.2046C55.5358 24.3526 55.6994 24.4267 55.906 24.4267C56.1987 24.4267 56.3898 24.2958 56.4794 24.0341H57.2593C57.1801 24.344 57.0234 24.5902 56.7893 24.7727C56.5551 24.9552 56.2624 25.0465 55.9112 25.0465C55.6357 25.0465 55.3912 24.9862 55.1777 24.8657C54.9642 24.7417 54.7972 24.5696 54.6767 24.3492C54.5562 24.1254 54.4959 23.8654 54.4959 23.5692ZM59.4006 22.0971C59.6175 22.0971 59.8104 22.1454 59.9791 22.2418C60.1478 22.3347 60.2787 22.4742 60.3717 22.6602C60.4681 22.8427 60.5163 23.063 60.5163 23.3213V25H59.7932V23.4194C59.7932 23.1922 59.7363 23.0183 59.6227 22.8978C59.5091 22.7738 59.3541 22.7118 59.1578 22.7118C58.9581 22.7118 58.7997 22.7738 58.6826 22.8978C58.569 23.0183 58.5122 23.1922 58.5122 23.4194V25H57.7891V21.1777H58.5122V22.4949C58.6052 22.3709 58.7291 22.2745 58.8841 22.2056C59.039 22.1333 59.2112 22.0971 59.4006 22.0971Z" fill="#FFC231"/>
<rect x="21" y="54" width="124" height="1" fill="#D9D9D9"/>
<rect x="21" y="57" width="124" height="1" fill="#D9D9D9"/>
<rect x="21" y="60" width="124" height="1" fill="#D9D9D9"/>
<rect x="21" y="63" width="124" height="1" fill="#D9D9D9"/>
<rect x="21" y="81" width="41" height="1" fill="#D9D9D9"/>
<rect x="21" y="84" width="41" height="1" fill="#D9D9D9"/>
<rect x="21" y="87" width="41" height="1" fill="#D9D9D9"/>
<rect x="21" y="90" width="41" height="1" fill="#D9D9D9"/>
<rect x="21" y="93" width="41" height="1" fill="#D9D9D9"/>
<rect x="21" y="96" width="41" height="1" fill="#D9D9D9"/>
<rect x="21" y="99" width="41" height="1" fill="#D9D9D9"/>
<rect x="21" y="102" width="41" height="1" fill="#D9D9D9"/>
<rect x="21" y="105" width="41" height="1" fill="#D9D9D9"/>
<rect x="21" y="108" width="41" height="1" fill="#D9D9D9"/>
<rect x="21" y="111" width="41" height="1" fill="#D9D9D9"/>
<rect x="21" y="114" width="41" height="1" fill="#D9D9D9"/>
<rect x="21" y="117" width="41" height="1" fill="#D9D9D9"/>
<rect x="21" y="120" width="41" height="1" fill="#D9D9D9"/>
<rect x="67" y="81" width="41" height="1" fill="#D9D9D9"/>
<rect x="67" y="84" width="41" height="1" fill="#D9D9D9"/>
<rect x="67" y="87" width="41" height="1" fill="#D9D9D9"/>
<rect x="67" y="90" width="41" height="1" fill="#D9D9D9"/>
<rect x="21" y="66" width="35" height="1" fill="#D9D9D9"/>
<rect x="62" y="40" width="51" height="5" fill="#D9D9D9"/>
</svg>
